<svg width="37" height="58" viewBox="0 0 37 58" fill="none" xmlns="http://www.w3.org/2000/svg">
<path fill-rule="evenodd" clip-rule="evenodd" d="M1 29C1 24.0294 5.02944 20 10 20C14.9706 20 19 24.0294 19 29C19 33.9706 14.9706 38 10 38C5.02944 38 1 33.9706 1 29ZM11 38.9506C15.7244 38.4816 19.4816 34.7244 19.9506 30H21.25V28H19.9506C19.4816 23.2756 15.7244 19.5184 11 19.0494L11 0H9L9 19.0494C3.94668 19.5511 0 23.8147 0 29C0 34.1853 3.94668 38.4489 9 38.9506L9 58H11L11 38.9506ZM25.75 30H30.25V28H25.75V30ZM34.75 30H37V28H34.75V30Z" fill="#4D5E80"/>
</svg>
