<svg width="37" height="58" viewBox="0 0 37 58" fill="none" xmlns="http://www.w3.org/2000/svg">
<path fill-rule="evenodd" clip-rule="evenodd" d="M1 29C1 24.0294 5.02944 20 10 20C14.9706 20 19 24.0294 19 29C19 33.9706 14.9706 38 10 38C5.02944 38 1 33.9706 1 29ZM9 19.0494L9 0H11L11 19.0494C15.7244 19.5184 19.4816 23.2756 19.9506 28H21.25V30H19.9506C19.4489 35.0533 15.1853 39 10 39C4.47715 39 0 34.5228 0 29C0 23.8147 3.94668 19.5511 9 19.0494ZM25.75 30H30.25V28H25.75V30ZM34.75 30H37V28H34.75V30Z" fill="#4D5E80"/>
</svg>
