<svg width="37" height="58" viewBox="0 0 37 58" fill="none" xmlns="http://www.w3.org/2000/svg">
<path fill-rule="evenodd" clip-rule="evenodd" d="M19 29C19 33.9706 14.9706 38 10 38C5.02944 38 1 33.9706 1 29C1 24.0294 5.02944 20 10 20C14.9706 20 19 24.0294 19 29ZM11 38.9506C15.7244 38.4816 19.4816 34.7244 19.9506 30H21.25V28H19.9506C19.4489 22.9467 15.1853 19 10 19C4.47715 19 0 23.4772 0 29C0 34.1853 3.94668 38.4489 9 38.9506L9 58H11L11 38.9506ZM25.75 30H30.25V28H25.75V30ZM34.75 30H37V28H34.75V30Z" fill="#4D5E80"/>
</svg>
